<svg xmlns="http://www.w3.org/2000/svg" width="50" height="50" viewBox="0 0 50 50" fill="none"><g clip-path="url(#clip0_2110_17745)"><path d="M49.9726 1.408C49.9314 0.662613 49.3359 0.0671387 48.5906 0.0263214C48.5711 0.025177 48.1027 0 47.2943 0C45.0639 0 40.5652 0.18692 35.4981 1.43967C29.094 3.02277 23.9106 5.76172 20.0917 9.58061C18.4297 11.2427 16.9743 13.1588 15.7304 15.3175L14.0622 13.6497C13.6243 13.2118 12.9586 13.0966 12.3994 13.3617L0.837794 18.8377C0.30984 19.088 -0.0189865 19.6281 0.000849882 20.2122L0.609676 37.8586C0.629512 38.4415 0.993816 38.9568 1.53627 39.1708C1.7106 39.2399 1.89256 39.2731 2.07299 39.2731C2.45446 39.2731 2.82945 39.1239 3.10907 38.8439L13.0261 28.9268L16.0134 31.9138L6.09597 41.8308C5.52415 42.403 5.52415 43.3304 6.09597 43.9026C6.38208 44.1887 6.75706 44.3317 7.13166 44.3317C7.50665 44.3317 7.88163 44.1887 8.16774 43.9026L18.0848 33.9851L21.0717 36.972L11.155 46.8895C10.7423 47.3019 10.6141 47.9198 10.8277 48.4623C11.0417 49.0051 11.5571 49.369 12.14 49.3893L29.7864 49.9977C29.8036 49.9985 29.8203 49.9985 29.8371 49.9985C30.4017 49.9985 30.9178 49.6735 31.1608 49.1608L36.6376 37.5996C36.9027 37.0399 36.7871 36.3743 36.3496 35.9364L34.681 34.2686C36.8401 33.0242 38.7563 31.5689 40.4179 29.9072C42.8475 27.4776 44.8617 24.456 46.404 20.9259C47.6243 18.1335 48.5543 15.0169 49.1677 11.6631C50.2088 5.97229 49.9825 1.59187 49.9726 1.408ZM2.9622 21.0732L12.7206 16.4509L14.3243 18.055C13.2142 20.4918 12.3338 23.1853 11.6868 26.123L3.42111 34.3887L2.9622 21.0732ZM33.5481 37.2784L28.9254 47.0367L15.6098 46.5775L23.8751 38.3118C26.8132 37.6648 29.5068 36.7844 31.9436 35.6743L33.5481 37.2784ZM46.2727 11.2068C45.3748 16.0751 43.2702 22.9118 38.3466 27.8355C36.4961 29.686 34.2786 31.2557 31.7136 32.5371C31.6323 32.5684 31.5541 32.608 31.4782 32.6546C29.1371 33.7986 26.5107 34.7057 23.6123 35.3695L20.1566 31.9138L25.2057 26.8646C25.7779 26.2924 25.7779 25.3651 25.2057 24.7929C24.6339 24.2207 23.7061 24.221 23.1343 24.7929L18.0848 29.842L14.6291 26.3863C15.2924 23.4882 16.2 20.8622 17.344 18.5211C17.3905 18.4452 17.4302 18.3662 17.4619 18.2846C18.7432 15.72 20.3126 13.5025 22.1631 11.652C30.1045 3.71056 42.9509 2.95563 47.0673 2.93007C47.0563 4.60205 46.9281 7.65724 46.2727 11.2068Z" fill="white"></path><path d="M34.5139 21.2521C36.0543 21.2521 37.5027 20.652 38.5926 19.5625C40.841 17.3138 40.841 13.6547 38.5922 11.4063C37.5027 10.3168 36.0547 9.7168 34.5139 9.7168C32.9732 9.7168 31.5251 10.3168 30.4356 11.4063C29.3461 12.4954 28.7461 13.9439 28.7461 15.4846C28.7461 17.0254 29.3461 18.4734 30.4356 19.5629C31.5251 20.652 32.9732 21.2521 34.5139 21.2521ZM32.5074 13.4777C33.0434 12.9417 33.7559 12.6465 34.5139 12.6465C35.2719 12.6465 35.9845 12.9417 36.5208 13.4777C37.6271 14.584 37.6271 16.3845 36.5208 17.4911C35.9849 18.0271 35.2719 18.3224 34.5139 18.3224C33.7559 18.3224 33.0434 18.0271 32.507 17.4911C31.971 16.9552 31.6758 16.2426 31.6758 15.4846C31.6758 14.7263 31.971 14.0137 32.5074 13.4777Z" fill="white"></path></g><defs><clipPath id="clip0_2110_17745"><rect width="50" height="50" fill="white"></rect></clipPath></defs></svg>