<svg xmlns="http://www.w3.org/2000/svg" width="50" height="50" viewBox="0 0 50 50" fill="none"><path d="M25 0C12.8843 0 3.02734 9.90068 3.02734 22.0703C3.02734 32.3536 10.1392 41.1229 19.9067 43.4461L23.7755 49.3392C24.0462 49.7516 24.5065 50 25 50C25.4935 50 25.9538 49.7516 26.2245 49.3391L30.0933 43.446C39.8615 41.1228 46.9727 32.3529 46.9727 22.0703C46.9727 9.90068 37.1157 0 25 0V0ZM28.8965 40.7115C28.5163 40.7906 28.1831 41.0173 27.9701 41.3418L25 45.866L22.0299 41.3418C21.8168 41.0173 21.4836 40.7905 21.1035 40.7115C12.3271 38.8871 5.95703 31.0474 5.95703 22.0703C5.95703 11.5161 14.4997 2.92969 25 2.92969C35.5003 2.92969 44.043 11.5161 44.043 22.0703C44.043 31.0474 37.673 38.8871 28.8965 40.7115Z" fill="white"></path><path d="M40.3245 17.0909C40.1656 16.6016 39.7615 16.2315 39.2601 16.1161L30.7537 14.158L26.26 6.57734C25.9961 6.13223 25.5172 5.85938 24.9998 5.85938C24.4825 5.85938 24.0036 6.13223 23.7398 6.57734L19.246 14.158L10.7397 16.1161C10.2382 16.2316 9.83421 16.6017 9.67523 17.0909C9.51625 17.5804 9.62562 18.1173 9.96341 18.5053L15.6973 25.093L14.9306 33.7925C14.8855 34.305 15.1125 34.8036 15.5288 35.1061C15.945 35.4085 16.4893 35.4702 16.963 35.269L24.9998 31.8518L33.0368 35.269C33.509 35.4701 34.0541 35.4091 34.4709 35.1061C34.8872 34.8036 35.1143 34.305 35.0692 33.7925L34.3025 25.093L40.0364 18.5053C40.3742 18.1173 40.4835 17.5803 40.3245 17.0909ZM31.6836 23.6394C31.4223 23.9396 31.2945 24.3331 31.3293 24.7296L31.9364 31.6177L25.573 28.9119C25.2071 28.7563 24.7929 28.7561 24.4267 28.9119L18.0633 31.6177L18.6703 24.7296C18.7052 24.3331 18.5774 23.9396 18.3161 23.6394L13.7761 18.4234L20.5149 16.8723C20.9053 16.7823 21.2419 16.5364 21.4463 16.1916L24.9998 10.1969L28.5535 16.1917C28.7578 16.5364 29.0945 16.7824 29.4849 16.8724L36.2237 18.4235L31.6836 23.6394Z" fill="white"></path></svg>