<svg xmlns="http://www.w3.org/2000/svg" width="50" height="50" viewBox="0 0 50 50" fill="none"><g clip-path="url(#clip0_2110_17724)"><path d="M48.5352 34.5182H47.184L49.9716 20.5802C50.0576 20.1498 49.9463 19.7035 49.6681 19.3642C49.3899 19.0247 48.9741 18.828 48.5353 18.828H28.138C27.4397 18.828 26.8385 19.3209 26.7017 20.0056L23.7991 34.5182H23.1864C22.5868 31.4008 20.1124 28.9423 16.9858 28.3689C16.7536 25.9797 15.905 23.6934 14.5558 21.7368C18.5734 21.459 21.7578 18.1038 21.7578 14.0168C21.7578 9.74844 18.2853 6.27588 14.0169 6.27588C9.74854 6.27588 6.27598 9.74844 6.27598 14.0168C6.27598 15.2242 6.5542 16.3678 7.04941 17.3872C3.04951 18.0883 0 21.5867 0 25.7844V42.259C0 43.068 0.655859 43.7238 1.46484 43.7238H48.5352C49.3441 43.7238 50 43.068 50 42.259V35.9829C50 35.174 49.3441 34.5182 48.5352 34.5182ZM29.3389 21.7577H46.7483L44.1963 34.5182H26.7868L29.3389 21.7577ZM14.0169 9.20566C16.6698 9.20566 18.8281 11.364 18.8281 14.0169C18.8281 16.6698 16.6698 18.828 14.0169 18.828C11.364 18.828 9.20566 16.6697 9.20566 14.0168C9.20566 11.3639 11.3641 9.20566 14.0169 9.20566ZM2.92969 25.7844C2.92969 22.6989 5.43994 20.1887 8.52539 20.1887H8.82197C9.04053 20.3525 9.33897 20.5764 9.68643 20.8372C12.0694 22.624 13.6283 25.3193 14.0227 28.2421H9.20576V24.9999C9.20576 24.1909 8.5499 23.5351 7.74092 23.5351C6.93193 23.5351 6.27607 24.1909 6.27607 24.9999V29.7069C6.27607 30.5159 6.93193 31.1718 7.74092 31.1718H15.5859C17.7283 31.1718 19.548 32.5793 20.1691 34.5182H2.92969V25.7844ZM47.0703 40.7941H2.92969V37.4478H47.0703V40.7941Z" fill="white"></path><path d="M36.7676 29.6028C37.5766 29.6028 38.2324 28.947 38.2324 28.1379C38.2324 27.3289 37.5766 26.6731 36.7676 26.6731C35.9586 26.6731 35.3027 27.3289 35.3027 28.1379C35.3027 28.947 35.9586 29.6028 36.7676 29.6028Z" fill="white"></path></g><defs><clipPath id="clip0_2110_17724"><rect width="50" height="50" fill="white"></rect></clipPath></defs></svg>